<mxfile host="app.diagrams.net" modified="2024-02-26T05:20:00.000Z" agent="Mozilla/5.0 (Macintosh; Intel Mac OS X 10_15_7) AppleWebKit/537.36 (KHTML, like Gecko) Chrome/120.0.0.0 Safari/537.36" etag="DhNxNVrM21n0EVAXcr7P" version="21.6.6" type="github">
  <diagram id="C5RBs43oDa-KdzZeNtuy" name="Page-1">
    <mxGraphModel dx="1373" dy="744" grid="1" gridSize="10" guides="1" tooltips="1" connect="1" arrows="1" fold="1" page="1" pageScale="1" pageWidth="827" pageHeight="1169" background="#FFFDF0" math="0" shadow="0">
      <root>
        <mxCell id="WIyWlLk6GJQsqaUBKTNV-0" />
        <mxCell id="WIyWlLk6GJQsqaUBKTNV-1" parent="WIyWlLk6GJQsqaUBKTNV-0" />
        <mxCell id="WIyWlLk6GJQsqaUBKTNV-2" value="" style="rounded=0;html=1;jettySize=auto;orthogonalLoop=1;fontSize=11;endArrow=block;endFill=0;endSize=8;strokeWidth=1;shadow=0;labelBackgroundColor=none;edgeStyle=orthogonalEdgeStyle;fontColor=default;sketch=1;curveFitting=1;jiggle=2;noEdgeStyle=1;orthogonal=1;entryX=0.5;entryY=1;entryDx=0;entryDy=0;exitX=0.5;exitY=0;exitDx=0;exitDy=0;fontStyle=1" parent="WIyWlLk6GJQsqaUBKTNV-1" source="X-2t8R4CyY52dQEvmOuq-20" target="WIyWlLk6GJQsqaUBKTNV-6" edge="1">
          <mxGeometry relative="1" as="geometry">
            <mxPoint x="-3" y="4.260000000000005" as="sourcePoint" />
          </mxGeometry>
        </mxCell>
        <mxCell id="WIyWlLk6GJQsqaUBKTNV-4" value="Yes" style="rounded=0;html=1;jettySize=auto;orthogonalLoop=1;fontSize=11;endArrow=block;endFill=0;endSize=8;strokeWidth=1;shadow=0;labelBackgroundColor=none;edgeStyle=orthogonalEdgeStyle;fontColor=default;entryDx=0;entryDy=0;sketch=1;curveFitting=1;jiggle=2;noEdgeStyle=1;orthogonal=1;exitX=0.5;exitY=1;exitDx=0;exitDy=0;fontStyle=1" parent="WIyWlLk6GJQsqaUBKTNV-1" source="WIyWlLk6GJQsqaUBKTNV-6" target="X-2t8R4CyY52dQEvmOuq-1" edge="1">
          <mxGeometry x="0.0956" y="9" relative="1" as="geometry">
            <mxPoint as="offset" />
            <mxPoint x="-3" y="174.26" as="targetPoint" />
          </mxGeometry>
        </mxCell>
        <mxCell id="WIyWlLk6GJQsqaUBKTNV-5" value="No" style="edgeStyle=orthogonalEdgeStyle;rounded=0;html=1;jettySize=auto;orthogonalLoop=1;fontSize=11;endArrow=block;endFill=0;endSize=8;strokeWidth=1;shadow=0;labelBackgroundColor=none;fontColor=default;entryDx=0;entryDy=0;sketch=1;curveFitting=1;jiggle=2;noEdgeStyle=1;orthogonal=1;fontStyle=1" parent="WIyWlLk6GJQsqaUBKTNV-1" source="WIyWlLk6GJQsqaUBKTNV-6" target="X-2t8R4CyY52dQEvmOuq-3" edge="1">
          <mxGeometry x="-0.0612" y="-10" relative="1" as="geometry">
            <mxPoint as="offset" />
            <mxPoint x="97" y="94.26" as="targetPoint" />
          </mxGeometry>
        </mxCell>
        <mxCell id="WIyWlLk6GJQsqaUBKTNV-6" value="&lt;font style=&quot;font-size: 10px;&quot;&gt;是否配置 bucket 返回固定为 0 的 Content-Length&lt;/font&gt;" style="rhombus;whiteSpace=wrap;html=1;shadow=0;fontFamily=Helvetica;fontSize=12;align=center;strokeWidth=1;spacing=6;spacingTop=-4;labelBackgroundColor=none;rounded=0;sketch=1;curveFitting=1;jiggle=2;fillColor=#f8cecc;strokeColor=#b85450;fontStyle=1" parent="WIyWlLk6GJQsqaUBKTNV-1" vertex="1">
          <mxGeometry x="7" y="10.000000000000014" width="170" height="100" as="geometry" />
        </mxCell>
        <mxCell id="X-2t8R4CyY52dQEvmOuq-1" value="返回 Content-Length: 0" style="rounded=0;whiteSpace=wrap;html=1;fontSize=12;glass=0;strokeWidth=1;shadow=0;labelBackgroundColor=none;sketch=1;curveFitting=1;jiggle=2;fillColor=#dae8fc;strokeColor=#6c8ebf;fontStyle=1" vertex="1" parent="WIyWlLk6GJQsqaUBKTNV-1">
          <mxGeometry x="167" y="194.26" width="170" height="60" as="geometry" />
        </mxCell>
        <mxCell id="X-2t8R4CyY52dQEvmOuq-3" value="&lt;font style=&quot;font-size: 10px;&quot;&gt;是否配置 appid 返回固定为 0 的 Content-Length&lt;/font&gt;" style="rhombus;whiteSpace=wrap;html=1;shadow=0;fontFamily=Helvetica;fontSize=12;align=center;strokeWidth=1;spacing=6;spacingTop=-4;labelBackgroundColor=none;rounded=0;sketch=1;curveFitting=1;jiggle=2;fillColor=#f8cecc;strokeColor=#b85450;fontStyle=1" vertex="1" parent="WIyWlLk6GJQsqaUBKTNV-1">
          <mxGeometry x="226" y="10.000740740740767" width="170" height="100" as="geometry" />
        </mxCell>
        <mxCell id="X-2t8R4CyY52dQEvmOuq-5" value="Yes" style="rounded=0;html=1;jettySize=auto;orthogonalLoop=1;fontSize=11;endArrow=block;endFill=0;endSize=8;strokeWidth=1;shadow=0;labelBackgroundColor=none;edgeStyle=orthogonalEdgeStyle;fontColor=default;entryDx=0;entryDy=0;exitDx=0;exitDy=0;sketch=1;curveFitting=1;jiggle=2;noEdgeStyle=1;orthogonal=1;exitX=0.5;exitY=1;fontStyle=1" edge="1" parent="WIyWlLk6GJQsqaUBKTNV-1" source="X-2t8R4CyY52dQEvmOuq-3" target="X-2t8R4CyY52dQEvmOuq-1">
          <mxGeometry x="-0.0506" y="19" relative="1" as="geometry">
            <mxPoint as="offset" />
            <mxPoint x="7" y="144.26" as="sourcePoint" />
            <mxPoint x="7" y="204.26" as="targetPoint" />
          </mxGeometry>
        </mxCell>
        <mxCell id="X-2t8R4CyY52dQEvmOuq-6" value="返回标准 Content-Length" style="rounded=0;whiteSpace=wrap;html=1;fontSize=12;glass=0;strokeWidth=1;shadow=0;labelBackgroundColor=none;sketch=1;curveFitting=1;jiggle=2;fillColor=#dae8fc;strokeColor=#6c8ebf;fontStyle=1" vertex="1" parent="WIyWlLk6GJQsqaUBKTNV-1">
          <mxGeometry x="437" y="194.26" width="170" height="60" as="geometry" />
        </mxCell>
        <mxCell id="X-2t8R4CyY52dQEvmOuq-7" value="&lt;font style=&quot;font-size: 10px;&quot;&gt;是否是新申请 appid&lt;/font&gt;" style="rhombus;whiteSpace=wrap;html=1;shadow=0;fontFamily=Helvetica;fontSize=12;align=center;strokeWidth=1;spacing=6;spacingTop=-4;labelBackgroundColor=none;rounded=0;sketch=1;curveFitting=1;jiggle=2;fillColor=#f8cecc;strokeColor=#b85450;fontStyle=1" vertex="1" parent="WIyWlLk6GJQsqaUBKTNV-1">
          <mxGeometry x="437" y="10.000740740740767" width="170" height="100" as="geometry" />
        </mxCell>
        <mxCell id="X-2t8R4CyY52dQEvmOuq-9" value="No" style="edgeStyle=orthogonalEdgeStyle;rounded=0;html=1;jettySize=auto;orthogonalLoop=1;fontSize=11;endArrow=block;endFill=0;endSize=8;strokeWidth=1;shadow=0;labelBackgroundColor=none;fontColor=default;entryDx=0;entryDy=0;exitDx=0;exitDy=0;sketch=1;curveFitting=1;jiggle=2;noEdgeStyle=1;orthogonal=1;fontStyle=1" edge="1" parent="WIyWlLk6GJQsqaUBKTNV-1" source="X-2t8R4CyY52dQEvmOuq-3" target="X-2t8R4CyY52dQEvmOuq-7">
          <mxGeometry x="-0.3171" y="-10" relative="1" as="geometry">
            <mxPoint as="offset" />
            <mxPoint x="57" y="104.26" as="sourcePoint" />
            <mxPoint x="127" y="104.26" as="targetPoint" />
          </mxGeometry>
        </mxCell>
        <mxCell id="X-2t8R4CyY52dQEvmOuq-10" value="Yes" style="rounded=0;html=1;jettySize=auto;orthogonalLoop=1;fontSize=11;endArrow=block;endFill=0;endSize=8;strokeWidth=1;shadow=0;labelBackgroundColor=none;edgeStyle=orthogonalEdgeStyle;fontColor=default;entryDx=0;entryDy=0;exitDx=0;exitDy=0;sketch=1;curveFitting=1;jiggle=2;noEdgeStyle=1;orthogonal=1;exitX=0.5;exitY=1;entryX=0.5;entryY=0;fontStyle=1" edge="1" parent="WIyWlLk6GJQsqaUBKTNV-1" source="X-2t8R4CyY52dQEvmOuq-7" target="X-2t8R4CyY52dQEvmOuq-6">
          <mxGeometry x="-0.0506" y="18" relative="1" as="geometry">
            <mxPoint as="offset" />
            <mxPoint x="177" y="144.26" as="sourcePoint" />
            <mxPoint x="7" y="204.26" as="targetPoint" />
          </mxGeometry>
        </mxCell>
        <mxCell id="X-2t8R4CyY52dQEvmOuq-11" value="No" style="edgeStyle=orthogonalEdgeStyle;rounded=0;html=1;jettySize=auto;orthogonalLoop=1;fontSize=11;endArrow=block;endFill=0;endSize=8;strokeWidth=1;shadow=0;labelBackgroundColor=none;fontColor=default;exitDx=0;exitDy=0;sketch=1;curveFitting=1;jiggle=2;entryDx=0;entryDy=0;noEdgeStyle=1;orthogonal=1;fontStyle=1" edge="1" parent="WIyWlLk6GJQsqaUBKTNV-1" source="X-2t8R4CyY52dQEvmOuq-7" target="X-2t8R4CyY52dQEvmOuq-12">
          <mxGeometry x="-0.35" y="-10" relative="1" as="geometry">
            <mxPoint as="offset" />
            <mxPoint x="227" y="104.26" as="sourcePoint" />
            <mxPoint x="457" y="94.26" as="targetPoint" />
          </mxGeometry>
        </mxCell>
        <mxCell id="X-2t8R4CyY52dQEvmOuq-12" value="&lt;font style=&quot;font-size: 10px;&quot;&gt;是否来自 CDN 请求&lt;/font&gt;" style="rhombus;whiteSpace=wrap;html=1;shadow=0;fontFamily=Helvetica;fontSize=12;align=center;strokeWidth=1;spacing=6;spacingTop=-4;labelBackgroundColor=none;rounded=0;sketch=1;curveFitting=1;jiggle=2;fillColor=#f8cecc;strokeColor=#b85450;fontStyle=1" vertex="1" parent="WIyWlLk6GJQsqaUBKTNV-1">
          <mxGeometry x="647" y="10.000740740740767" width="170" height="100" as="geometry" />
        </mxCell>
        <mxCell id="X-2t8R4CyY52dQEvmOuq-13" value="Yes" style="rounded=0;html=1;jettySize=auto;orthogonalLoop=1;fontSize=11;endArrow=block;endFill=0;endSize=8;strokeWidth=1;shadow=0;labelBackgroundColor=none;edgeStyle=orthogonalEdgeStyle;fontColor=default;entryDx=0;entryDy=0;exitDx=0;exitDy=0;sketch=1;curveFitting=1;jiggle=2;noEdgeStyle=1;orthogonal=1;fontStyle=1" edge="1" parent="WIyWlLk6GJQsqaUBKTNV-1" source="X-2t8R4CyY52dQEvmOuq-12" target="X-2t8R4CyY52dQEvmOuq-6">
          <mxGeometry x="0.0236" y="23" relative="1" as="geometry">
            <mxPoint as="offset" />
            <mxPoint x="347" y="144.26" as="sourcePoint" />
            <mxPoint x="247" y="204.26" as="targetPoint" />
          </mxGeometry>
        </mxCell>
        <mxCell id="X-2t8R4CyY52dQEvmOuq-14" value="No" style="edgeStyle=orthogonalEdgeStyle;rounded=0;html=1;jettySize=auto;orthogonalLoop=1;fontSize=11;endArrow=block;endFill=0;endSize=8;strokeWidth=1;shadow=0;labelBackgroundColor=none;fontColor=default;exitDx=0;exitDy=0;entryDx=0;entryDy=0;sketch=1;curveFitting=1;jiggle=2;noEdgeStyle=1;orthogonal=1;entryX=0.5;entryY=0;fontStyle=1" edge="1" parent="WIyWlLk6GJQsqaUBKTNV-1" source="X-2t8R4CyY52dQEvmOuq-12" target="X-2t8R4CyY52dQEvmOuq-15">
          <mxGeometry x="-0.0875" y="18" relative="1" as="geometry">
            <mxPoint as="offset" />
            <mxPoint x="397" y="104.26" as="sourcePoint" />
            <mxPoint x="627" y="144.26" as="targetPoint" />
          </mxGeometry>
        </mxCell>
        <mxCell id="X-2t8R4CyY52dQEvmOuq-15" value="&lt;font style=&quot;font-size: 10px;&quot;&gt;是否配置 bucket 返回标准 Content-Length&lt;br&gt;&lt;/font&gt;" style="rhombus;whiteSpace=wrap;html=1;shadow=0;fontFamily=Helvetica;fontSize=12;align=center;strokeWidth=1;spacing=6;spacingTop=-4;labelBackgroundColor=none;rounded=0;sketch=1;curveFitting=1;jiggle=2;fillColor=#f8cecc;strokeColor=#b85450;fontStyle=1" vertex="1" parent="WIyWlLk6GJQsqaUBKTNV-1">
          <mxGeometry x="657" y="314.26074074074074" width="170" height="100" as="geometry" />
        </mxCell>
        <mxCell id="X-2t8R4CyY52dQEvmOuq-16" value="Yes" style="rounded=0;html=1;jettySize=auto;orthogonalLoop=1;fontSize=11;endArrow=block;endFill=0;endSize=8;strokeWidth=1;shadow=0;labelBackgroundColor=none;edgeStyle=orthogonalEdgeStyle;fontColor=default;sketch=1;curveFitting=1;jiggle=2;entryDx=0;entryDy=0;noEdgeStyle=1;orthogonal=1;fontStyle=1" edge="1" parent="WIyWlLk6GJQsqaUBKTNV-1" source="X-2t8R4CyY52dQEvmOuq-15" target="X-2t8R4CyY52dQEvmOuq-6">
          <mxGeometry x="0.15" y="15" relative="1" as="geometry">
            <mxPoint as="offset" />
            <mxPoint x="517" y="144.26" as="sourcePoint" />
            <mxPoint x="297" y="264.26" as="targetPoint" />
          </mxGeometry>
        </mxCell>
        <mxCell id="X-2t8R4CyY52dQEvmOuq-17" value="&lt;font style=&quot;font-size: 10px;&quot;&gt;是否配置 appid 返回标准 Content-Length&lt;br&gt;&lt;/font&gt;" style="rhombus;whiteSpace=wrap;html=1;shadow=0;fontFamily=Helvetica;fontSize=12;align=center;strokeWidth=1;spacing=6;spacingTop=-4;labelBackgroundColor=none;rounded=0;sketch=1;curveFitting=1;jiggle=2;fillColor=#f8cecc;strokeColor=#b85450;fontStyle=1" vertex="1" parent="WIyWlLk6GJQsqaUBKTNV-1">
          <mxGeometry x="357" y="314.26074074074074" width="170" height="100" as="geometry" />
        </mxCell>
        <mxCell id="X-2t8R4CyY52dQEvmOuq-18" value="No" style="rounded=0;html=1;jettySize=auto;orthogonalLoop=1;fontSize=11;endArrow=block;endFill=0;endSize=8;strokeWidth=1;shadow=0;labelBackgroundColor=none;edgeStyle=orthogonalEdgeStyle;fontColor=default;exitDx=0;exitDy=0;entryDx=0;entryDy=0;sketch=1;curveFitting=1;jiggle=2;noEdgeStyle=1;orthogonal=1;entryX=1;entryY=0.5;fontStyle=1" edge="1" parent="WIyWlLk6GJQsqaUBKTNV-1" source="X-2t8R4CyY52dQEvmOuq-15" target="X-2t8R4CyY52dQEvmOuq-17">
          <mxGeometry x="0.0308" y="16" relative="1" as="geometry">
            <mxPoint as="offset" />
            <mxPoint x="587" y="234.26" as="sourcePoint" />
            <mxPoint x="327" y="224.26" as="targetPoint" />
          </mxGeometry>
        </mxCell>
        <mxCell id="X-2t8R4CyY52dQEvmOuq-19" value="Yes" style="rounded=0;html=1;jettySize=auto;orthogonalLoop=1;fontSize=11;endArrow=block;endFill=0;endSize=8;strokeWidth=1;shadow=0;labelBackgroundColor=none;edgeStyle=orthogonalEdgeStyle;fontColor=default;entryX=0.5;entryY=1;entryDx=0;entryDy=0;sketch=1;curveFitting=1;jiggle=2;noEdgeStyle=1;orthogonal=1;exitX=0.5;exitY=0;exitDx=0;exitDy=0;fontStyle=1" edge="1" parent="WIyWlLk6GJQsqaUBKTNV-1" source="X-2t8R4CyY52dQEvmOuq-17" target="X-2t8R4CyY52dQEvmOuq-6">
          <mxGeometry x="0.2191" y="-15" relative="1" as="geometry">
            <mxPoint as="offset" />
            <mxPoint x="587" y="234.26" as="sourcePoint" />
            <mxPoint x="327" y="224.26" as="targetPoint" />
          </mxGeometry>
        </mxCell>
        <mxCell id="X-2t8R4CyY52dQEvmOuq-20" value="start" style="ellipse;whiteSpace=wrap;html=1;hachureGap=4;fontFamily=Helvetica;fontSize=12;sketch=1;curveFitting=1;jiggle=2;rounded=0;labelBackgroundColor=none;fillColor=#d5e8d4;strokeColor=#82b366;fontStyle=1;strokeWidth=1;shadow=0;" vertex="1" parent="WIyWlLk6GJQsqaUBKTNV-1">
          <mxGeometry x="12" y="294.26" width="160" height="90" as="geometry" />
        </mxCell>
        <mxCell id="X-2t8R4CyY52dQEvmOuq-21" value="No" style="rounded=0;html=1;jettySize=auto;orthogonalLoop=1;fontSize=11;endArrow=block;endFill=0;endSize=8;strokeWidth=1;shadow=0;labelBackgroundColor=none;edgeStyle=orthogonalEdgeStyle;fontColor=default;exitX=0;exitY=0.5;exitDx=0;exitDy=0;entryX=0.5;entryY=1;entryDx=0;entryDy=0;sketch=1;curveFitting=1;jiggle=2;noEdgeStyle=1;orthogonal=1;fontStyle=1" edge="1" parent="WIyWlLk6GJQsqaUBKTNV-1" source="X-2t8R4CyY52dQEvmOuq-17" target="X-2t8R4CyY52dQEvmOuq-1">
          <mxGeometry x="-0.1478" y="-11" relative="1" as="geometry">
            <mxPoint as="offset" />
            <mxPoint x="637" y="274.26" as="sourcePoint" />
            <mxPoint x="527" y="344.26" as="targetPoint" />
          </mxGeometry>
        </mxCell>
      </root>
    </mxGraphModel>
  </diagram>
</mxfile>
